<?xml version="1.0" standalone="no"?><svg xmlns="http://www.w3.org/2000/svg" viewBox="0 0 1440 320"><path fill="#02fbfb" fill-opacity="1" d="M0,64L40,96C80,128,160,192,240,202.7C320,213,400,171,480,149.3C560,128,640,128,720,154.7C800,181,880,235,960,240C1040,245,1120,203,1200,160C1280,117,1360,75,1400,53.3L1440,32L1440,320L1400,320C1360,320,1280,320,1200,320C1120,320,1040,320,960,320C880,320,800,320,720,320C640,320,560,320,480,320C400,320,320,320,240,320C160,320,80,320,40,320L0,320Z"></path></svg>